<mxfile host="Electron" agent="Mozilla/5.0 (Windows NT 10.0; Win64; x64) AppleWebKit/537.36 (KHTML, like Gecko) draw.io/24.7.8 Chrome/128.0.6613.36 Electron/32.0.1 Safari/537.36" version="24.7.8">
  <diagram id="1zcTAVt1k4KSup7FvAfL" name="Roadmap">
    <mxGraphModel dx="5372" dy="3567" grid="1" gridSize="10" guides="1" tooltips="1" connect="1" arrows="1" fold="1" page="1" pageScale="1" pageWidth="3300" pageHeight="2339" math="0" shadow="0">
      <root>
        <mxCell id="3D7FDG2aXA9G618_Kong-0" />
        <mxCell id="3D7FDG2aXA9G618_Kong-1" parent="3D7FDG2aXA9G618_Kong-0" />
        <mxCell id="wGroBH12Sy7-OgBsN0fJ-2" value="" style="shape=rect;fillColor=#fff2cc;strokeColor=none;fontSize=24;html=1;whiteSpace=wrap;align=left;verticalAlign=top;spacing=5;rounded=0;" parent="3D7FDG2aXA9G618_Kong-1" vertex="1">
          <mxGeometry x="-2500" y="-1010" width="2400" height="120" as="geometry" />
        </mxCell>
        <mxCell id="wGroBH12Sy7-OgBsN0fJ-4" value="" style="shape=rect;fillColor=#fff2cc;strokeColor=none;fontSize=24;html=1;whiteSpace=wrap;align=left;verticalAlign=top;spacing=5;rounded=0;" parent="3D7FDG2aXA9G618_Kong-1" vertex="1">
          <mxGeometry x="-2500" y="-1140.8" width="2400" height="120" as="geometry" />
        </mxCell>
        <mxCell id="wGroBH12Sy7-OgBsN0fJ-5" value="Этап 1. Планирование и проектирование" style="shape=rect;fillColor=#ffe6cc;strokeColor=#d79b00;fontSize=18;html=1;whiteSpace=wrap;align=left;verticalAlign=middle;spacing=5;rounded=0;" parent="3D7FDG2aXA9G618_Kong-1" vertex="1">
          <mxGeometry x="-2490" y="-1115.8" width="390" height="70" as="geometry" />
        </mxCell>
        <mxCell id="wGroBH12Sy7-OgBsN0fJ-7" value="Архитектурная команда&amp;nbsp;&lt;div&gt;(2)&lt;/div&gt;" style="rounded=0;whiteSpace=wrap;html=1;fillColor=#f5f5f5;fontColor=#333333;strokeColor=#666666;fontSize=18;" parent="3D7FDG2aXA9G618_Kong-1" vertex="1">
          <mxGeometry x="-2680" y="-1140.8" width="170" height="120" as="geometry" />
        </mxCell>
        <mxCell id="wGroBH12Sy7-OgBsN0fJ-8" value="Инфраструктурная команда&amp;nbsp;&lt;div&gt;(2)&lt;/div&gt;" style="rounded=0;whiteSpace=wrap;html=1;fillColor=#f5f5f5;fontColor=#333333;strokeColor=#666666;fontSize=18;" parent="3D7FDG2aXA9G618_Kong-1" vertex="1">
          <mxGeometry x="-2680" y="-1010" width="170" height="120" as="geometry" />
        </mxCell>
        <mxCell id="wGroBH12Sy7-OgBsN0fJ-9" value="Q1" style="shape=step;perimeter=stepPerimeter;whiteSpace=wrap;html=1;fixedSize=1;size=10;fillColor=#f5f5f5;strokeColor=#666666;fontSize=18;fontStyle=1;align=center;rounded=0;fontColor=#333333;" parent="3D7FDG2aXA9G618_Kong-1" vertex="1">
          <mxGeometry x="-2500" y="-1230" width="600" height="74.4" as="geometry" />
        </mxCell>
        <mxCell id="RwSQezwdNiI7fE7qIiGB-13" value="" style="shape=rect;fillColor=#fff2cc;strokeColor=none;fontSize=24;html=1;whiteSpace=wrap;align=left;verticalAlign=top;spacing=5;rounded=0;" parent="3D7FDG2aXA9G618_Kong-1" vertex="1">
          <mxGeometry x="-2500" y="-880" width="2400" height="120" as="geometry" />
        </mxCell>
        <mxCell id="RwSQezwdNiI7fE7qIiGB-14" value="Команда данных&amp;nbsp;&lt;div&gt;(3-5)&lt;/div&gt;" style="rounded=0;whiteSpace=wrap;html=1;fillColor=#f5f5f5;fontColor=#333333;strokeColor=#666666;fontSize=18;" parent="3D7FDG2aXA9G618_Kong-1" vertex="1">
          <mxGeometry x="-2680" y="-880" width="170" height="120" as="geometry" />
        </mxCell>
        <mxCell id="RwSQezwdNiI7fE7qIiGB-21" value="" style="shape=rect;fillColor=#fff2cc;strokeColor=none;fontSize=24;html=1;whiteSpace=wrap;align=left;verticalAlign=top;spacing=5;rounded=0;" parent="3D7FDG2aXA9G618_Kong-1" vertex="1">
          <mxGeometry x="-2500" y="-750" width="2400" height="120" as="geometry" />
        </mxCell>
        <mxCell id="RwSQezwdNiI7fE7qIiGB-22" value="Команда безопасности&amp;nbsp;&lt;div&gt;(2)&lt;/div&gt;" style="rounded=0;whiteSpace=wrap;html=1;fillColor=#f5f5f5;fontColor=#333333;strokeColor=#666666;fontSize=18;" parent="3D7FDG2aXA9G618_Kong-1" vertex="1">
          <mxGeometry x="-2680" y="-750" width="170" height="120" as="geometry" />
        </mxCell>
        <mxCell id="6SZWje5kXsOwJ3Z70fLZ-2" value="Этап&amp;nbsp;2. Реализация портала самообслуживания" style="shape=rect;fillColor=#ffe6cc;strokeColor=#d79b00;fontSize=18;html=1;whiteSpace=wrap;align=left;verticalAlign=middle;spacing=5;rounded=0;" vertex="1" parent="3D7FDG2aXA9G618_Kong-1">
          <mxGeometry x="-2090" y="-1050" width="780" height="330" as="geometry" />
        </mxCell>
        <mxCell id="6SZWje5kXsOwJ3Z70fLZ-3" value="Этап&amp;nbsp;3. Интеграция с внешними подразделениями" style="shape=rect;fillColor=#ffe6cc;strokeColor=#d79b00;fontSize=18;html=1;whiteSpace=wrap;align=left;verticalAlign=middle;spacing=5;rounded=0;" vertex="1" parent="3D7FDG2aXA9G618_Kong-1">
          <mxGeometry x="-1300" y="-1050" width="780" height="330" as="geometry" />
        </mxCell>
        <mxCell id="6SZWje5kXsOwJ3Z70fLZ-4" value="Этап&amp;nbsp;4. Сопровождение и обучение" style="shape=rect;fillColor=#ffe6cc;strokeColor=#d79b00;fontSize=18;html=1;whiteSpace=wrap;align=left;verticalAlign=middle;spacing=5;rounded=0;" vertex="1" parent="3D7FDG2aXA9G618_Kong-1">
          <mxGeometry x="-510" y="-1050" width="390" height="330" as="geometry" />
        </mxCell>
        <mxCell id="6SZWje5kXsOwJ3Z70fLZ-5" value="Q2" style="shape=step;perimeter=stepPerimeter;whiteSpace=wrap;html=1;fixedSize=1;size=10;fillColor=#f5f5f5;strokeColor=#666666;fontSize=18;fontStyle=1;align=center;rounded=0;fontColor=#333333;" vertex="1" parent="3D7FDG2aXA9G618_Kong-1">
          <mxGeometry x="-1900" y="-1230" width="600" height="74.4" as="geometry" />
        </mxCell>
        <mxCell id="6SZWje5kXsOwJ3Z70fLZ-6" value="Q3" style="shape=step;perimeter=stepPerimeter;whiteSpace=wrap;html=1;fixedSize=1;size=10;fillColor=#f5f5f5;strokeColor=#666666;fontSize=18;fontStyle=1;align=center;rounded=0;fontColor=#333333;" vertex="1" parent="3D7FDG2aXA9G618_Kong-1">
          <mxGeometry x="-1300" y="-1230" width="600" height="74.4" as="geometry" />
        </mxCell>
        <mxCell id="6SZWje5kXsOwJ3Z70fLZ-7" value="Q4" style="shape=step;perimeter=stepPerimeter;whiteSpace=wrap;html=1;fixedSize=1;size=10;fillColor=#f5f5f5;strokeColor=#666666;fontSize=18;fontStyle=1;align=center;rounded=0;fontColor=#333333;" vertex="1" parent="3D7FDG2aXA9G618_Kong-1">
          <mxGeometry x="-700" y="-1230" width="600" height="74.4" as="geometry" />
        </mxCell>
        <mxCell id="6SZWje5kXsOwJ3Z70fLZ-8" value="&lt;div&gt;&lt;div&gt;&lt;b&gt;Результаты:&lt;/b&gt;&lt;/div&gt;&lt;div&gt;- Сформировано архитектурное решение по трансформации.&amp;nbsp;&lt;/div&gt;&lt;div&gt;- Уточнены границы доменов и связи между ними.&amp;nbsp;&lt;/div&gt;&lt;div&gt;- Спроектирована новая архитектура данных и безопасности.&lt;/div&gt;&lt;div&gt;- Запланированы конкретные проекты в доменах по развитию &quot;витрины данных&quot;.&lt;/div&gt;&lt;div&gt;&lt;br&gt;&lt;/div&gt;&lt;div&gt;&lt;b&gt;Ответственные команды:&lt;/b&gt;&lt;/div&gt;&lt;div&gt;- Архитектурная команда (архитектор, системный аналитик)&lt;/div&gt;&lt;div&gt;&lt;br&gt;&lt;/div&gt;&lt;div&gt;&lt;b&gt;Ресурсы:&lt;/b&gt;&lt;/div&gt;&lt;div&gt;- Сотрудники архитектурной команды (2)&lt;/div&gt;&lt;div&gt;- Представители доменов: пользователи системы из различных подразделений компании (5)&amp;nbsp;&lt;/div&gt;&lt;/div&gt;&lt;div&gt;&lt;b&gt;&lt;br&gt;&lt;/b&gt;&lt;/div&gt;&lt;div&gt;&lt;div&gt;&lt;b&gt;Обоснование:&lt;/b&gt;&lt;br&gt;&lt;/div&gt;&lt;/div&gt;&lt;div&gt;Это основополагающий этап, предусматривающий в т.ч. тесное взаимодействие с существующими и потенциальными пользователями системы, представителями подразделений, руководства для выявления реальных потребностей бизнеса. Он необходим для обеспечения эффективности изменений в компании, достижения целей бизнеса с учётом всех важных аспектов (удобства работы с данными, безопасности данных, производительности) при оптимальном инвестировании ресурсов.&lt;br&gt;&lt;/div&gt;" style="shape=note;whiteSpace=wrap;html=1;backgroundOutline=1;darkOpacity=0.05;align=left;spacing=5;verticalAlign=top;" vertex="1" parent="3D7FDG2aXA9G618_Kong-1">
          <mxGeometry x="-2500" y="-600" width="390" height="440" as="geometry" />
        </mxCell>
        <mxCell id="6SZWje5kXsOwJ3Z70fLZ-9" value="" style="endArrow=none;dashed=1;html=1;rounded=0;exitX=0;exitY=0;exitDx=180;exitDy=0;exitPerimeter=0;entryX=0.5;entryY=1;entryDx=0;entryDy=0;" edge="1" parent="3D7FDG2aXA9G618_Kong-1" source="6SZWje5kXsOwJ3Z70fLZ-8" target="wGroBH12Sy7-OgBsN0fJ-5">
          <mxGeometry width="50" height="50" relative="1" as="geometry">
            <mxPoint x="-1710" y="-630" as="sourcePoint" />
            <mxPoint x="-1660" y="-680" as="targetPoint" />
          </mxGeometry>
        </mxCell>
        <mxCell id="6SZWje5kXsOwJ3Z70fLZ-10" value="&lt;div&gt;&lt;div&gt;&lt;b&gt;Результаты:&lt;/b&gt;&lt;/div&gt;&lt;div&gt;- Развёрнута инфраструктура под Data Lakehouse.&lt;/div&gt;&lt;div&gt;- Организована миграция данных из Data Warehouse в Data Lakehouse.&lt;/div&gt;&lt;div&gt;- Реализован портал самообслуживания для аналитики и внутренних сервисов.&lt;/div&gt;&lt;div&gt;&lt;br&gt;&lt;/div&gt;&lt;div&gt;&lt;b&gt;Ответственные команды:&lt;/b&gt;&lt;/div&gt;&lt;div&gt;- Архитектурная команда (архитектор, системный аналитик)&lt;/div&gt;&lt;div&gt;- Инфраструктурная команда (специалисты по инфраструктуре)&lt;/div&gt;&lt;div&gt;- Команда данных (инженеры данных)&lt;/div&gt;&lt;div&gt;- Команда безопасности (специалисты по безопасности)&lt;/div&gt;&lt;div&gt;&lt;br&gt;&lt;/div&gt;&lt;div&gt;&lt;b&gt;Ресурсы:&lt;/b&gt;&lt;/div&gt;&lt;div&gt;- Сотрудники архитектурной команды (2)&lt;/div&gt;&lt;div&gt;- Сотрудники инфраструктурной команды (2)&lt;/div&gt;&lt;div&gt;- Сотрудники команды данных (3)&lt;/div&gt;&lt;div&gt;- Сотрудники команды безопасности (2)&lt;/div&gt;&lt;div&gt;- Сервера для Apache Airflow, PostgreSQL, MinIO, Nessie, Dremio, Splunk, Keycloak.&lt;/div&gt;&lt;div&gt;- Лицензии для Dremio (Enterprise), MinIO (Enterprise), Splunk.&lt;/div&gt;&lt;div&gt;&lt;br&gt;&lt;/div&gt;&lt;div&gt;&lt;b&gt;Обоснование:&lt;/b&gt;&lt;/div&gt;&lt;div&gt;Этап призван решить первоочередные проблемы компании, такие как отсутствие возможности конструирования кастомных отчетов сотрудниками, привязанность к единственному устаревшему хранилищу данных, рисики безопасности, а также обеспечить удобство интеграции с внешними системами.&lt;/div&gt;&lt;/div&gt;" style="shape=note;whiteSpace=wrap;html=1;backgroundOutline=1;darkOpacity=0.05;align=left;spacing=5;verticalAlign=top;" vertex="1" parent="3D7FDG2aXA9G618_Kong-1">
          <mxGeometry x="-1895" y="-600" width="390" height="440" as="geometry" />
        </mxCell>
        <mxCell id="6SZWje5kXsOwJ3Z70fLZ-11" value="" style="endArrow=none;dashed=1;html=1;rounded=0;entryX=0.5;entryY=1;entryDx=0;entryDy=0;exitX=0;exitY=0;exitDx=180;exitDy=0;exitPerimeter=0;" edge="1" parent="3D7FDG2aXA9G618_Kong-1" source="6SZWje5kXsOwJ3Z70fLZ-10" target="6SZWje5kXsOwJ3Z70fLZ-2">
          <mxGeometry width="50" height="50" relative="1" as="geometry">
            <mxPoint x="-1960" y="-430" as="sourcePoint" />
            <mxPoint x="-1910" y="-480" as="targetPoint" />
          </mxGeometry>
        </mxCell>
        <mxCell id="6SZWje5kXsOwJ3Z70fLZ-12" value="&lt;div&gt;&lt;b&gt;Результаты:&lt;/b&gt;&lt;/div&gt;&lt;div&gt;- Развёрнута инфраструктура под DataHub.&lt;/div&gt;&lt;div&gt;- Организована интеграция DataHub с Data Lakehouse.&lt;/div&gt;&lt;div&gt;- Реализованы витрины данных для ИИ-сервисов.&lt;/div&gt;&lt;div&gt;- Реализованы витрины данных для Финтех-сервисов.&lt;/div&gt;&lt;div&gt;&lt;br&gt;&lt;/div&gt;&lt;div&gt;&lt;b&gt;Ответственные команды:&lt;/b&gt;&lt;/div&gt;&lt;div&gt;- Архитектурная команда (архитектор, системный аналитик)&lt;/div&gt;&lt;div&gt;- Инфраструктурная команда (специалисты по инфраструктуре)&lt;/div&gt;&lt;div&gt;- Команда данных (инженеры данных, в т.ч. со стороны внешних подразделений)&lt;/div&gt;&lt;div&gt;- Команда безопасности (специалисты по безопасности)&lt;/div&gt;&lt;div&gt;&lt;br&gt;&lt;/div&gt;&lt;div&gt;&lt;b&gt;Ресурсы:&lt;/b&gt;&lt;/div&gt;&lt;div&gt;- Сотрудники архитектурной команды (2)&amp;nbsp;&lt;/div&gt;&lt;div&gt;- Сотрудники инфраструктурной команды (2)&amp;nbsp;&lt;/div&gt;&lt;div&gt;- Сотрудники команды данных (5)&lt;/div&gt;&lt;div&gt;- Сотрудники команды безопасности (2)&lt;/div&gt;&lt;div&gt;- Сервера для DataHub, Apache Kafka, PostgreSQL, Elasticsearch.&lt;/div&gt;&lt;div&gt;- Лицензия для Elasticsearch (подписка).&lt;/div&gt;&lt;div&gt;&lt;br&gt;&lt;/div&gt;&lt;div&gt;&lt;b&gt;Обоснование:&lt;/b&gt;&lt;/div&gt;&lt;div&gt;Этап необходим для достижения поставленных целей бизнеса по реализации портала самообслуживания с возможностью удобного обмена данными между всеми , в т.ч. внешними, подразделениями компании. Также выполнение данного этапа позволит упростить интеграцию с новыми системами в будущем.&lt;/div&gt;" style="shape=note;whiteSpace=wrap;html=1;backgroundOutline=1;darkOpacity=0.05;align=left;spacing=5;verticalAlign=top;" vertex="1" parent="3D7FDG2aXA9G618_Kong-1">
          <mxGeometry x="-1105" y="-600" width="390" height="440" as="geometry" />
        </mxCell>
        <mxCell id="6SZWje5kXsOwJ3Z70fLZ-13" value="" style="endArrow=none;dashed=1;html=1;rounded=0;entryX=0.5;entryY=1;entryDx=0;entryDy=0;exitX=0;exitY=0;exitDx=180;exitDy=0;exitPerimeter=0;" edge="1" parent="3D7FDG2aXA9G618_Kong-1" source="6SZWje5kXsOwJ3Z70fLZ-12" target="6SZWje5kXsOwJ3Z70fLZ-3">
          <mxGeometry width="50" height="50" relative="1" as="geometry">
            <mxPoint x="-1305" y="-340" as="sourcePoint" />
            <mxPoint x="-1045" y="-630" as="targetPoint" />
          </mxGeometry>
        </mxCell>
        <mxCell id="6SZWje5kXsOwJ3Z70fLZ-14" value="&lt;div&gt;&lt;b&gt;Результаты:&lt;/b&gt;&lt;/div&gt;&lt;div&gt;- Система донастроена под специфические потребности отдельных подразделений.&lt;/div&gt;&lt;div&gt;- Разработана подробная документация по изменениям и работе с новыми сервисами.&lt;/div&gt;&lt;div&gt;- Сотрудники компании из различных доменов успешно работают с витринами данных.&lt;/div&gt;&lt;div&gt;&lt;br&gt;&lt;/div&gt;&lt;div&gt;&lt;b&gt;Ответственные команды:&lt;/b&gt;&lt;/div&gt;&lt;div&gt;- Архитектурная команда (архитектор, системный аналитик)&lt;/div&gt;&lt;div&gt;- Инфраструктурная команда (специалисты по инфраструктуре)&lt;/div&gt;&lt;div&gt;- Команда данных (инженеры данных, в т.ч. со стороны внешних подразделений)&lt;/div&gt;&lt;div&gt;- Команда безопасности (специалисты по безопасности)&lt;/div&gt;&lt;div&gt;&lt;br&gt;&lt;/div&gt;&lt;div&gt;&lt;b&gt;Ресурсы:&lt;/b&gt;&lt;/div&gt;&lt;div&gt;- Сотрудники архитектурной команды (2)&lt;/div&gt;&lt;div&gt;- Сотрудники инфраструктурной команды (1)&amp;nbsp;&lt;/div&gt;&lt;div&gt;- Сотрудники команды данных (5)&lt;/div&gt;&lt;div&gt;- Сотрудники команды безопасности (1)&lt;/div&gt;&lt;div&gt;&lt;br&gt;&lt;/div&gt;&lt;div&gt;&lt;b&gt;Обоснование:&lt;/b&gt;&lt;/div&gt;&lt;div&gt;Данный этап позволяет учесть нюансы работы с новой системой в отдельных подразделениях, обеспечить максимальную эффективность использования системы за счёт создания подробной документации и обучения пользователей.&lt;/div&gt;" style="shape=note;whiteSpace=wrap;html=1;backgroundOutline=1;darkOpacity=0.05;align=left;spacing=5;verticalAlign=top;" vertex="1" parent="3D7FDG2aXA9G618_Kong-1">
          <mxGeometry x="-510" y="-600" width="390" height="440" as="geometry" />
        </mxCell>
        <mxCell id="6SZWje5kXsOwJ3Z70fLZ-15" value="" style="endArrow=none;dashed=1;html=1;rounded=0;entryX=0.5;entryY=1;entryDx=0;entryDy=0;exitX=0;exitY=0;exitDx=180;exitDy=0;exitPerimeter=0;" edge="1" parent="3D7FDG2aXA9G618_Kong-1" source="6SZWje5kXsOwJ3Z70fLZ-14" target="6SZWje5kXsOwJ3Z70fLZ-4">
          <mxGeometry width="50" height="50" relative="1" as="geometry">
            <mxPoint x="-800" y="-250" as="sourcePoint" />
            <mxPoint x="-405" y="-630" as="targetPoint" />
          </mxGeometry>
        </mxCell>
      </root>
    </mxGraphModel>
  </diagram>
</mxfile>
